<svg id="like" width="19" height="18" viewBox="0 0 19 18" xmlns="http://www.w3.org/2000/svg">
<path d="M18.1113 4.09292C17.8234 3.42613 17.4081 2.82188 16.8889 2.31402C16.3692 1.80463 15.7566 1.39984 15.0842 1.12163C14.387 0.83201 13.6392 0.683763 12.8842 0.685501C11.825 0.685501 10.7916 0.97554 9.89356 1.52339C9.67871 1.65445 9.47461 1.79839 9.28125 1.95523C9.08789 1.79839 8.88379 1.65445 8.66895 1.52339C7.7709 0.97554 6.7375 0.685501 5.67832 0.685501C4.91563 0.685501 4.17656 0.831595 3.47832 1.12163C2.80371 1.40093 2.1957 1.80269 1.67363 2.31402C1.1537 2.82131 0.738371 3.4257 0.451172 4.09292C0.152539 4.78687 0 5.52378 0 6.28218C0 6.99761 0.146094 7.74312 0.436133 8.50152C0.678907 9.13531 1.02695 9.79273 1.47168 10.4566C2.17637 11.5072 3.14531 12.6029 4.34844 13.7136C6.34219 15.5548 8.3166 16.8267 8.40039 16.8783L8.90957 17.2048C9.13516 17.3488 9.4252 17.3488 9.65078 17.2048L10.16 16.8783C10.2438 16.8246 12.216 15.5548 14.2119 13.7136C15.415 12.6029 16.384 11.5072 17.0887 10.4566C17.5334 9.79273 17.8836 9.13531 18.1242 8.50152C18.4143 7.74312 18.5604 6.99761 18.5604 6.28218C18.5625 5.52378 18.41 4.78687 18.1113 4.09292ZM9.28125 15.5054C9.28125 15.5054 1.63281 10.6048 1.63281 6.28218C1.63281 4.09292 3.44395 2.31831 5.67832 2.31831C7.24883 2.31831 8.61094 3.19488 9.28125 4.47534C9.95156 3.19488 11.3137 2.31831 12.8842 2.31831C15.1186 2.31831 16.9297 4.09292 16.9297 6.28218C16.9297 10.6048 9.28125 15.5054 9.28125 15.5054Z"/>
</svg>
