<svg id="message" width="19" height="19" viewBox="0 0 19 19" xmlns="http://www.w3.org/2000/svg">
<path clip-rule="evenodd" d="M15.625 0.75C17.0206 0.75 18.1655 1.84513 18.2455 3.22101L18.25 3.375V12.125C18.25 13.5206 17.1549 14.6655 15.779 14.7455L15.625 14.75H12.5625L10.2 17.9C10.0346 18.1205 9.77563 18.25 9.5 18.25C9.25883 18.25 9.03039 18.1509 8.86625 17.9783L8.8 17.9L6.4375 14.75H3.375C1.97944 14.75 0.834469 13.6549 0.754465 12.279L0.75 12.125V3.375C0.75 1.97944 1.84513 0.834469 3.22101 0.754465L3.375 0.75H15.625ZM15.625 2.5H3.375C2.92731 2.5 2.55658 2.83875 2.5059 3.27316L2.5 3.375V12.125C2.5 12.5727 2.83875 12.9434 3.27316 12.9941L3.375 13H6.875C7.11617 13 7.34462 13.0991 7.50875 13.2717L7.575 13.35L9.5 15.9164L11.425 13.35C11.5697 13.1571 11.7861 13.0338 12.0226 13.006L12.125 13H15.625C16.0727 13 16.4434 12.6612 16.4941 12.2268L16.5 12.125V3.375C16.5 2.92731 16.1612 2.55658 15.7268 2.5059L15.625 2.5ZM13.875 8.625C14.358 8.625 14.75 9.017 14.75 9.5C14.75 9.9485 14.412 10.3185 13.977 10.3691L13.875 10.375H5.125C4.642 10.375 4.25 9.983 4.25 9.5C4.25 9.0515 4.588 8.68146 5.023 8.63089L5.125 8.625H13.875ZM13.875 5.125C14.358 5.125 14.75 5.517 14.75 6C14.75 6.4485 14.412 6.81854 13.977 6.86911L13.875 6.875H5.125C4.642 6.875 4.25 6.483 4.25 6C4.25 5.5515 4.588 5.18146 5.023 5.13089L5.125 5.125H13.875Z"/>
</svg>
