<svg width="12" height="7" viewBox="0 0 12 7" fill="none" xmlns="http://www.w3.org/2000/svg">
<path d="M0.744249 0.304876C0.676345 0.372609 0.62247 0.453074 0.58571 0.54166C0.548951 0.630247 0.530029 0.725216 0.530029 0.821126C0.530029 0.917037 0.548951 1.01201 0.58571 1.10059C0.62247 1.18918 0.676345 1.26964 0.744249 1.33738L5.59175 6.18488C5.64572 6.23895 5.70982 6.28186 5.78039 6.31113C5.85095 6.3404 5.9266 6.35547 6.003 6.35547C6.0794 6.35547 6.15505 6.3404 6.22561 6.31113C6.29618 6.28186 6.36028 6.23895 6.41425 6.18488L11.2618 1.33738C11.5476 1.05154 11.5476 0.590709 11.2618 0.304876C10.9759 0.0190426 10.5151 0.0190426 10.2293 0.304876L6.00008 4.52821L1.77092 0.299044C1.49092 0.0190435 1.02425 0.0190425 0.744249 0.304876Z" fill="black"/>
</svg>
