<svg width="18" height="18" viewBox="0 0 18 18" fill="none" xmlns="http://www.w3.org/2000/svg">
<path fill-rule="evenodd" clip-rule="evenodd" d="M6.26309 13.5L2.71852 16.3357C2.22745 16.7285 1.5 16.3789 1.5 15.75V3.75C1.5 2.50736 2.50736 1.5 3.75 1.5H14.25C15.4926 1.5 16.5 2.50736 16.5 3.75V11.25C16.5 12.4926 15.4926 13.5 14.25 13.5H6.26309ZM3 14.1895L5.53148 12.1643C5.66446 12.058 5.8297 12 6 12H14.25C14.6642 12 15 11.6642 15 11.25V3.75C15 3.33579 14.6642 3 14.25 3H3.75C3.33579 3 3 3.33579 3 3.75V14.1895Z" fill="#4F4F4F"/>
</svg>
