<svg width="1921" height="1080" viewBox="0 0 1921 1080" fill="none" xmlns="http://www.w3.org/2000/svg">
<g opacity="0.1" clip-path="url(#clip0_1593_11)">
<path d="M0 1080.28L1921.14 0.281255" stroke="black" stroke-miterlimit="10"/>
<path d="M1921.14 1080.28L0 0.281255" stroke="black" stroke-miterlimit="10"/>
<path d="M0 1080.28L960.5 0.281255" stroke="black" stroke-miterlimit="10"/>
<path d="M960.5 1080.28L0 0.281255" stroke="black" stroke-miterlimit="10"/>
<path d="M0 1080.28L480.25 0.281255" stroke="black" stroke-miterlimit="10"/>
<path d="M480.25 1080.28L0 0.281255" stroke="black" stroke-miterlimit="10"/>
<path d="M960.5 1080.28L1921 0.281255" stroke="black" stroke-miterlimit="10"/>
<path d="M960.5 0.281255V1080.28" stroke="black" stroke-miterlimit="10"/>
<path d="M0 0.281255L1921 540.281" stroke="black" stroke-miterlimit="10"/>
<path d="M0 540.563L1921.14 0.281255" stroke="black" stroke-miterlimit="10"/>
<path d="M1921 1080.28L0 540.563" stroke="black" stroke-miterlimit="10"/>
<path d="M0 1080.28L1921 540.281" stroke="black" stroke-miterlimit="10"/>
<path d="M0 76.0781H1921.98" stroke="black" stroke-miterlimit="10"/>
<path d="M0 270.141H1921.98" stroke="black" stroke-miterlimit="10"/>
<path d="M0 270.141H1921.98" stroke="black" stroke-miterlimit="10"/>
<path d="M0 361.547H1921.98" stroke="black" stroke-miterlimit="10"/>
<path d="M0 541.547H1921.98" stroke="black" stroke-miterlimit="10"/>
<path d="M0 720.141H1921.98" stroke="black" stroke-miterlimit="10"/>
<path d="M0 810.141H1921.98" stroke="black" stroke-miterlimit="10"/>
<path d="M0 1011.23H1921.98" stroke="black" stroke-miterlimit="10"/>
<path d="M480.25 0.281255V1080.28" stroke="black" stroke-miterlimit="10"/>
<path d="M771.635 0.281255V1080.28" stroke="black" stroke-miterlimit="10"/>
<path d="M640.568 0.281255V1080.28" stroke="black" stroke-miterlimit="10"/>
<path d="M384.059 0.281255V1080.28" stroke="black" stroke-miterlimit="10"/>
<path d="M319.932 -0.281255V1079.72" stroke="black" stroke-miterlimit="10"/>
<path d="M240.195 -0.281255V1079.72" stroke="black" stroke-miterlimit="10"/>
<path d="M122.91 -0.281255V1079.72" stroke="black" stroke-miterlimit="10"/>
<path d="M61.3145 -0.281255V1079.72" stroke="black" stroke-miterlimit="10"/>
<path d="M1440.89 0.281255V1080.28" stroke="black" stroke-miterlimit="10"/>
<path d="M1149.51 0.281255V1080.28" stroke="black" stroke-miterlimit="10"/>
<path d="M1280.57 0.281255V1080.28" stroke="black" stroke-miterlimit="10"/>
<path d="M1537.08 0.281255V1080.28" stroke="black" stroke-miterlimit="10"/>
<path d="M1601.21 -0.281255V1079.72" stroke="black" stroke-miterlimit="10"/>
<path d="M1680.95 -0.281255V1079.72" stroke="black" stroke-miterlimit="10"/>
<path d="M1798.23 -0.281255V1079.72" stroke="black" stroke-miterlimit="10"/>
<path d="M1859.83 -0.281255V1079.72" stroke="black" stroke-miterlimit="10"/>
<path d="M480.25 1080.28L960.5 0.281255" stroke="black" stroke-miterlimit="10"/>
<path d="M480.25 0.281255L960.5 1080.28" stroke="black" stroke-miterlimit="10"/>
<path d="M959.375 1080.28L1439.63 0.281255" stroke="black" stroke-miterlimit="10"/>
<path d="M1439.63 1080.28L959.375 0.281255" stroke="black" stroke-miterlimit="10"/>
<path d="M1439.62 1080.28L1919.87 0.281255" stroke="black" stroke-miterlimit="10"/>
<path d="M1439.62 0.281255L1919.87 1080.28" stroke="black" stroke-miterlimit="10"/>
</g>
<defs>
<clipPath id="clip0_1593_11">
<rect width="1921" height="1080" fill="white"/>
</clipPath>
</defs>
</svg>
