<svg width="13" height="14" viewBox="0 0 13 14" fill="none" xmlns="http://www.w3.org/2000/svg">
<path d="M6.43658 1.25626C8.15961 1.25626 8.35766 1.26633 9.04093 1.29652C9.66478 1.32672 10.0114 1.42737 10.2391 1.51796C10.5362 1.63874 10.7541 1.77966 10.9818 2.01116C11.2096 2.24266 11.3482 2.45404 11.467 2.76606C11.5561 2.99757 11.6651 3.33979 11.6849 3.98397C11.7146 4.67848 11.7245 4.87979 11.7245 6.63116C11.7245 8.38253 11.7146 8.58384 11.6849 9.27835C11.6552 9.91246 11.5561 10.2648 11.467 10.4963C11.3482 10.7982 11.2096 11.0197 10.9818 11.2512C10.7541 11.4827 10.5461 11.6236 10.2391 11.7444C10.0114 11.8349 9.67469 11.9457 9.04093 11.9658C8.35766 11.996 8.15961 12.0061 6.43658 12.0061C4.71356 12.0061 4.51551 11.996 3.83224 11.9658C3.20839 11.9356 2.8618 11.8349 2.63405 11.7444C2.33697 11.6236 2.11912 11.4827 1.89136 11.2512C1.66361 11.0197 1.52498 10.8083 1.40615 10.4963C1.31703 10.2648 1.2081 9.92253 1.18829 9.27835C1.15859 8.58384 1.14868 8.38253 1.14868 6.63116C1.14868 4.87979 1.15859 4.67848 1.18829 3.98397C1.218 3.34985 1.31703 2.99757 1.40615 2.76606C1.52498 2.4641 1.66361 2.24266 1.89136 2.01116C2.11912 1.77966 2.32707 1.63874 2.63405 1.51796C2.8618 1.42737 3.19849 1.31665 3.83224 1.29652C4.50561 1.26633 4.71356 1.25626 6.43658 1.25626ZM6.43658 0.0786133C4.68385 0.0786133 4.466 0.0886788 3.78273 0.118875C3.09946 0.149071 2.62415 0.259789 2.21815 0.420835C1.79234 0.591946 1.43586 0.813384 1.07937 1.17574C0.72288 1.53809 0.505027 1.90044 0.336685 2.33325C0.178246 2.74593 0.0693195 3.22907 0.0396122 3.92358C0.00990485 4.61809 0 4.84959 0 6.62109C0 8.40266 0.00990485 8.6241 0.0396122 9.31861C0.0693195 10.0131 0.178246 10.4963 0.336685 10.9089C0.505027 11.3417 0.72288 11.7041 1.07937 12.0664C1.43586 12.4288 1.79234 12.6502 2.21815 12.8214C2.62415 12.9824 3.09946 13.0931 3.78273 13.1233C4.466 13.1535 4.69376 13.1636 6.43658 13.1636C8.18932 13.1636 8.40717 13.1535 9.09044 13.1233C9.77371 13.0931 10.249 12.9824 10.655 12.8214C11.0808 12.6502 11.4373 12.4288 11.7938 12.0664C12.1503 11.7041 12.3681 11.3417 12.5365 10.9089C12.6949 10.4963 12.8038 10.0131 12.8336 9.31861C12.8633 8.6241 12.8732 8.3926 12.8732 6.62109C12.8732 4.84959 12.8633 4.61809 12.8336 3.92358C12.8038 3.22907 12.6949 2.74593 12.5365 2.33325C12.3681 1.90044 12.1503 1.53809 11.7938 1.17574C11.4373 0.813384 11.0808 0.591946 10.655 0.420835C10.249 0.259789 9.77371 0.149071 9.09044 0.118875C8.40717 0.0886788 8.17941 0.0786133 6.43658 0.0786133Z" fill="white"/>
<path d="M6.43652 3.26929C4.6046 3.26929 3.12915 4.77914 3.12915 6.63123C3.12915 8.48331 4.6145 9.99316 6.43652 9.99316C8.26845 9.99316 9.7439 8.48331 9.7439 6.63123C9.7439 4.77914 8.25855 3.26929 6.43652 3.26929ZM6.43652 8.81548C5.24825 8.81548 4.28772 7.83911 4.28772 6.63123C4.28772 5.42334 5.24825 4.44697 6.43652 4.44697C7.6248 4.44697 8.58532 5.42334 8.58532 6.63123C8.58532 7.83911 7.6248 8.81548 6.43652 8.81548Z" fill="white"/>
<path d="M9.87267 3.91357C10.2992 3.91357 10.645 3.5621 10.645 3.12854C10.645 2.69498 10.2992 2.34351 9.87267 2.34351C9.44612 2.34351 9.10034 2.69498 9.10034 3.12854C9.10034 3.5621 9.44612 3.91357 9.87267 3.91357Z" fill="white"/>
</svg>
