<svg width="167" height="47" viewBox="0 0 167 47" fill="none" xmlns="http://www.w3.org/2000/svg">
<g clip-path="url(#clip0_2841:5888)">
<path d="M77.2267 28.3628C77.1907 24.7202 77.1907 21.7142 77.1907 19.3801C77.1907 17.046 77.2267 15.1716 77.2267 13.7924V10.1145C77.2267 9.3718 77.2628 8.62913 77.3349 7.81574C77.407 7.00235 77.6233 6.25968 77.9838 5.58775C78.3444 4.91581 78.9573 4.34998 79.7865 3.9256C80.6158 3.50122 81.7695 3.25366 83.2477 3.25366C84.7619 3.25366 85.9517 3.43049 86.7809 3.8195C87.6101 4.20852 88.223 4.70362 88.5836 5.34019C88.9802 5.97676 89.1965 6.68406 89.2686 7.49746C89.3407 8.31085 89.3407 9.19497 89.3046 10.1145C89.3046 12.4132 89.3047 14.4643 89.3407 16.1972C89.3407 17.9655 89.3768 19.4862 89.3768 20.7593C89.3768 22.0678 89.3768 23.1288 89.4128 24.0129C89.4128 24.897 89.4489 25.6043 89.4489 26.1701C89.4489 27.4786 89.4489 28.2213 89.4849 28.3628C89.4849 29.5298 89.4489 30.52 89.3768 31.3688C89.3046 32.2175 89.0883 32.9248 88.6917 33.4907C88.2952 34.0565 87.6822 34.4809 86.853 34.7638C86.0238 35.0467 84.834 35.1882 83.2837 35.1882C81.8055 35.1882 80.6518 35.0467 79.8226 34.7638C78.9933 34.4809 78.4165 34.0565 78.0199 33.4553C77.6594 32.8895 77.443 32.1822 77.3709 31.3334C77.2628 30.52 77.2267 29.5298 77.2267 28.3628ZM80.8321 28.3628C80.8321 29.353 80.8321 30.2725 80.8681 31.0505C80.9042 31.8285 80.9763 32.4651 81.1205 33.0309C81.2647 33.5614 81.481 33.9858 81.8055 34.2687C82.13 34.5516 82.5987 34.6931 83.2116 34.6931C83.7885 34.6931 84.2572 34.5516 84.5816 34.2687C84.9061 33.9858 85.1585 33.5614 85.3027 33.0309C85.4469 32.5005 85.5551 31.8285 85.5551 31.0505C85.5551 30.2725 85.5911 29.3884 85.5911 28.3628V25.2507C85.5911 23.9775 85.5911 22.1385 85.5551 19.7337C85.5551 17.3289 85.519 14.1107 85.483 10.0791C85.519 9.30107 85.519 8.52304 85.483 7.78037C85.4469 7.03771 85.3748 6.36578 85.2306 5.76457C85.0864 5.16337 84.8701 4.70362 84.5456 4.31461C84.2211 3.96096 83.7885 3.74877 83.2116 3.74877C82.5987 3.74877 82.13 3.96096 81.8055 4.34998C81.481 4.77435 81.2647 5.26946 81.1205 5.90603C80.9763 6.5426 80.9042 7.21454 80.8681 7.9572C80.8321 8.69986 80.8321 9.40716 80.8321 10.0437V14.4997C80.8321 15.985 80.8321 17.8947 80.796 20.1935C80.796 22.4922 80.796 25.2153 80.8321 28.3628Z" fill="white"/>
<path d="M103.474 3.25366V5.48165H102.861V3.78414H98.2459L98.2819 34.6577H99.2193V35.1882H93.3065V34.6577H94.4603V3.78414H90.0978V5.48165H89.4849V3.25366H103.474Z" fill="white"/>
<path d="M133.506 3.25366V5.26946H132.893V3.8195H126.981L127.017 18.7435C127.017 18.4252 127.125 18.213 127.377 18.0362C127.629 17.8594 128.062 17.7887 128.711 17.7887H130.946V16.8338H131.559V19.2386H130.946V18.3899H128.531C127.954 18.3899 127.593 18.5313 127.341 18.8496C127.125 19.1679 126.981 19.6276 126.981 20.2288V34.7285H132.857V33.2785H133.47V35.2943H122.005V34.7638H123.159V3.78414H122.005V3.25366H133.506Z" fill="white"/>
<path d="M140.104 24.5434V34.6931H141.041V35.2236H135.129V34.6931H136.282V3.78414H135.129V3.25366H141.041V3.78414H140.068L140.104 23.0934L148.072 3.78414H147.098V3.25366H149.55V3.78414H148.649L144.214 14.8534L150.163 34.6931H151.136V35.2236H144.971V34.6931H146.125L141.69 20.5825L140.104 24.5434Z" fill="white"/>
<path d="M160.222 27.3726H156.508C156.22 27.3726 155.932 27.4079 155.607 27.4433C155.283 27.4786 154.958 27.5847 154.67 27.7262C154.381 27.8677 154.129 28.0445 153.913 28.292C153.696 28.5042 153.588 28.8225 153.552 29.1762L152.795 34.7992H153.588V35.2589C153.48 35.2589 153.3 35.2589 153.047 35.2589C152.795 35.2589 152.543 35.2589 152.29 35.2589C152.038 35.2589 151.822 35.2589 151.605 35.2589C151.389 35.2589 151.317 35.2589 151.317 35.2236V34.7992H152.074C152.074 34.7638 152.146 34.3041 152.254 33.42C152.362 32.5358 152.543 31.3334 152.759 29.9188C152.975 28.4689 153.192 26.8067 153.444 24.9677C153.696 23.0934 153.949 21.219 154.201 19.3093C154.778 14.7826 155.463 9.61935 156.22 3.85487H155.03V3.25366H160.078L165.882 34.7638H166.82V35.2236H160.15V34.7638H161.304L160.222 27.3726ZM160.15 26.9128L156.797 5.48165L153.66 28.3274C153.66 27.8677 153.985 27.514 154.598 27.2665C155.247 27.0189 155.932 26.9128 156.653 26.9128H160.15Z" fill="white"/>
<path d="M61.5795 14.4997C63.0937 15.4546 64.608 17.1874 64.7161 20.2996V20.3349C64.8964 21.7142 65.1488 23.0934 65.4372 24.4019L66.9875 20.5825L70.1602 30.6969C70.8452 32.4651 71.8187 33.9858 72.8642 35.2589H76.3975V34.7285H75.424L69.5112 14.8534L73.9819 3.78414H74.8832V3.25366H72.4316V3.78414H73.405L65.4372 23.0934L65.4011 3.78414H66.3746V3.25366H60.4618V3.78414H61.6155V14.4997H61.5795Z" fill="white"/>
<path d="M53.7558 2.08662C54.4769 5.05728 55.4864 9.33644 56.0272 11.812C56.3877 13.5449 56.6762 15.2424 56.6762 15.2424C62.6971 15.4899 62.589 19.7337 62.625 20.5118C63.4903 27.4433 66.0501 33.7736 68.0691 36.7796C66.7351 36.426 64.3195 32.8895 64.3195 32.8895C66.3746 37.8052 70.2684 39.9978 70.2684 39.9978C74.1261 45.0197 77.9478 47.0001 77.9478 47.0001C77.9478 47.0001 74.1261 46.1867 70.4126 42.7917C71.1336 44.3124 73.1887 45.5148 72.9724 45.444C67.6004 43.11 58.8754 37.3808 51.8811 23.8361C51.3402 22.3507 49.6457 19.2033 53.6837 15.5607L52.494 12.8729C50.7634 8.6645 49.2491 4.34998 47.807 0.0354567C47.807 9.17464e-05 50.7273 1.69761 53.7558 2.08662ZM55.4504 18.5313C53.6116 20.2642 53.1429 22.2446 54.1885 24.3312C59.272 34.1273 68.3575 41.1295 68.3575 41.1295C68.3575 41.1295 55.7748 29.1762 55.4504 18.5313ZM53.3232 12.4132C52.53 8.6645 51.3042 2.97075 51.3042 2.97075C51.3042 2.97075 49.9702 2.511 49.2131 1.94516C50.511 5.76458 53.3232 12.4132 53.3232 12.4132Z" fill="#CE0020"/>
<path d="M75.7485 41.7306C75.3159 41.4123 75.0275 41.1294 74.6669 40.8464C74.3425 40.5282 74.018 40.2099 73.7295 39.8916C73.1166 39.2197 72.5758 38.5477 72.1071 37.8051C71.6384 37.0624 71.2058 36.3197 70.8813 35.5063C70.5208 34.7283 70.2684 33.8796 70.0881 33.0662C70.4487 33.8442 70.8092 34.5869 71.2779 35.2942C71.7466 36.0015 72.2513 36.638 72.8282 37.2392C73.4051 37.8404 74.018 38.4063 74.6669 38.9014C74.9914 39.1489 75.3159 39.3965 75.6764 39.6087C76.0009 39.8209 76.3975 40.0331 76.6859 40.1745C77.1186 40.3867 77.3349 40.9172 77.1186 41.3769C76.9022 41.8013 76.3614 42.0135 75.8927 41.8013C75.8206 41.8013 75.7846 41.7659 75.7485 41.7306Z" fill="#CE0020"/>
<path d="M58.2625 40.2101C57.6135 39.4674 57.1088 38.7247 56.568 37.9467C56.0632 37.1687 55.5945 36.3906 55.1619 35.5772C54.7292 34.7638 54.3326 33.9505 53.9721 33.1017C53.6116 32.2529 53.2871 31.4042 52.9987 30.5554C53.4313 31.3688 53.8639 32.1468 54.3687 32.8895C54.8374 33.6322 55.3782 34.3748 55.919 35.0821C56.4598 35.7894 57.0367 36.4614 57.6496 37.1333C58.2625 37.7699 58.9114 38.4418 59.5243 38.9723C59.8849 39.2906 59.957 39.8564 59.5965 40.2101C59.272 40.5637 58.6951 40.6344 58.3346 40.2808C58.3346 40.2808 58.2985 40.2454 58.2625 40.2101Z" fill="#CE0020"/>
<path d="M4.97539 34.6931H5.91278V35.2236H0V34.6931H1.15371V3.78414H0V3.25366H4.93933V3.78414L4.97539 24.897C4.97539 24.6495 5.08355 24.4373 5.33592 24.2604C5.5883 24.0836 6.02094 23.9775 6.6699 23.9775C7.24676 23.9775 7.71546 23.8714 8.07599 23.6946C8.40047 23.5178 8.6889 23.058 8.83312 22.3507C9.01338 21.6434 9.12154 20.5471 9.1576 19.1325C9.19365 17.7179 9.22971 15.7375 9.22971 13.2266C9.22971 10.751 9.12155 8.87669 8.90522 7.60355C8.6889 6.33041 8.40047 5.41092 8.00389 4.80972C7.6073 4.24388 7.1386 3.9256 6.5978 3.85487C6.05699 3.78414 5.48014 3.74877 4.90328 3.74877V3.25366C6.38148 3.25366 7.64335 3.32439 8.6889 3.43049C9.73446 3.50122 10.5637 3.89023 11.1766 4.49144C11.7895 5.128 12.2221 6.11822 12.4745 7.46209C12.7269 8.80596 12.8351 10.751 12.8351 13.2266C12.8351 15.985 12.763 18.1423 12.6548 19.663C12.5466 21.1837 12.2943 22.3154 11.8977 23.058C11.5011 23.8007 10.8521 24.2251 10.0229 24.3665C9.1576 24.508 8.00389 24.5787 6.48964 24.5787C5.91278 24.5787 5.55224 24.7202 5.29987 25.0385C5.08355 25.3568 4.93933 25.8165 4.93933 26.4177V34.6931H4.97539Z" fill="white"/>
<path d="M14.0969 3.78414V3.25366H20.0097V3.78414H19.0363L19.1084 34.6931H20.0458V35.2236H14.0969V34.6931H15.2506V3.78414H14.0969Z" fill="white"/>
<path d="M33.3495 35.2236C31.655 31.1566 30.1408 27.4786 28.7707 24.1543C28.1939 22.7397 27.617 21.3605 27.0401 19.9459C26.4993 18.5313 25.9585 17.2582 25.4898 16.0911C25.0211 14.9241 24.6246 13.9339 24.3361 13.0851C24.0117 12.2364 23.8314 11.7059 23.7593 11.423V34.6224H24.6967V35.1528H21.7042V34.6224H22.8579V3.78414H21.7042V3.25366H24.6967L34.4672 27.514V3.8195H33.3135V3.25366H36.3059V3.78414H35.3325V19.3093C35.3325 21.2544 35.3325 23.1641 35.3325 25.0385C35.3325 26.9128 35.3325 28.6103 35.3685 30.0957C35.3685 31.581 35.4046 32.7834 35.4046 33.7382C35.4046 34.6577 35.4046 35.1528 35.4046 35.2236H33.3495Z" fill="white"/>
<path d="M45.4996 27.3726H41.7861C41.4976 27.3726 41.2092 27.4079 40.8847 27.4433C40.5602 27.4786 40.2358 27.5847 39.9473 27.7262C39.6589 27.8677 39.4065 28.0445 39.1902 28.292C38.9739 28.5042 38.8657 28.8225 38.8297 29.1762L38.0726 34.7992H38.8657V35.2589C38.7576 35.2589 38.5773 35.2589 38.3249 35.2589C38.0726 35.2589 37.8202 35.2589 37.5678 35.2589C37.3154 35.2589 37.0991 35.2589 36.8828 35.2589C36.6665 35.2589 36.5944 35.2589 36.5944 35.2236V34.7992H37.3515C37.3515 34.7638 37.4236 34.3041 37.5318 33.42C37.6399 32.5358 37.8202 31.3334 38.0365 29.9188C38.2528 28.4689 38.4691 26.8067 38.7215 24.9677C38.9739 23.0934 39.2263 21.219 39.4786 19.3093C40.0555 14.7826 40.7405 9.61935 41.4976 3.85487H40.3439V3.25366H45.3914L51.196 34.7638H52.1334V35.2236H45.4275V34.7638H46.5812L45.4996 27.3726ZM45.4275 26.9128L42.0745 5.48165L38.9378 28.3274C38.9378 27.8677 39.2623 27.514 39.8752 27.2665C40.5242 27.0189 41.2092 26.9128 41.9303 26.9128H45.4275Z" fill="white"/>
<path d="M115.552 20.052H112.163C111.982 20.052 111.73 20.052 111.405 20.0874C111.081 20.1227 110.756 20.1935 110.468 20.2996C110.144 20.4057 109.891 20.5471 109.675 20.7239C109.459 20.9008 109.35 21.1483 109.35 21.4666V34.6577H110.288V35.1882H104.375V34.6577H105.529V3.78414H104.375V3.25366H110.288V3.78414H109.314L109.35 20.2288C109.35 20.1227 109.459 20.0166 109.639 19.9105C109.819 19.8045 110.071 19.7337 110.396 19.663C110.72 19.5923 111.045 19.5215 111.369 19.4862C111.694 19.4508 112.054 19.4154 112.379 19.4154H115.588V3.78414H114.434V3.25366H120.347V3.78414H119.337L119.373 34.6577H120.311V35.1882H114.398V34.6577H115.552V20.052Z" fill="white"/>
</g>
<defs>
<clipPath id="clip0_2841:5888">
<rect width="167" height="47" fill="white"/>
</clipPath>
</defs>
</svg>
