<svg width="176" height="50" viewBox="0 0 176 50" fill="none" xmlns="http://www.w3.org/2000/svg">
<path d="M81.3886 30.1731C81.3506 26.298 81.3506 23.1001 81.3506 20.617C81.3506 18.1339 81.3886 16.14 81.3886 14.6727V10.76C81.3886 9.9699 81.4266 9.17984 81.5026 8.31452C81.5786 7.44921 81.8065 6.65914 82.1865 5.94432C82.5665 5.2295 83.2124 4.62754 84.0863 4.17607C84.9603 3.72461 86.1761 3.46125 87.734 3.46125C89.3299 3.46125 90.5837 3.64936 91.4577 4.06321C92.3316 4.47705 92.9775 5.00376 93.3575 5.68096C93.7755 6.35817 94.0034 7.11061 94.0794 7.97592C94.1554 8.84124 94.1554 9.78179 94.1174 10.76C94.1174 13.2054 94.1174 15.3875 94.1554 17.231C94.1554 19.1121 94.1934 20.7299 94.1934 22.0843C94.1934 23.4763 94.1934 24.605 94.2314 25.5455C94.2314 26.4861 94.2694 27.2385 94.2694 27.8405C94.2694 29.2325 94.2694 30.0226 94.3074 30.1731C94.3074 31.4146 94.2694 32.468 94.1934 33.371C94.1174 34.2739 93.8895 35.0263 93.4715 35.6283C93.0535 36.2302 92.4076 36.6817 91.5337 36.9827C90.6597 37.2837 89.4059 37.4342 87.772 37.4342C86.2141 37.4342 84.9983 37.2837 84.1243 36.9827C83.2504 36.6817 82.6425 36.2302 82.2245 35.5907C81.8445 34.9887 81.6166 34.2363 81.5406 33.3333C81.4266 32.468 81.3886 31.4146 81.3886 30.1731ZM85.1882 30.1731C85.1882 31.2265 85.1882 32.2047 85.2262 33.0324C85.2642 33.86 85.3402 34.5372 85.4922 35.1392C85.6442 35.7035 85.8722 36.155 86.2141 36.456C86.5561 36.757 87.0501 36.9074 87.696 36.9074C88.304 36.9074 88.7979 36.757 89.1399 36.456C89.4819 36.155 89.7478 35.7035 89.8998 35.1392C90.0518 34.5749 90.1658 33.86 90.1658 33.0324C90.1658 32.2047 90.2038 31.2641 90.2038 30.1731V26.8623C90.2038 25.5079 90.2038 23.5515 90.1658 20.9932C90.1658 18.4349 90.1278 15.0113 90.0898 10.7223C90.1278 9.89466 90.1278 9.06697 90.0898 8.2769C90.0518 7.48683 89.9758 6.77201 89.8238 6.13243C89.6718 5.49285 89.4439 5.00376 89.1019 4.58992C88.7599 4.2137 88.304 3.98796 87.696 3.98796C87.0501 3.98796 86.5561 4.2137 86.2141 4.62754C85.8722 5.07901 85.6442 5.60572 85.4922 6.28292C85.3402 6.96012 85.2642 7.67494 85.2262 8.46501C85.1882 9.25508 85.1882 10.0075 85.1882 10.6847V15.4251C85.1882 17.0053 85.1882 19.0369 85.1502 21.4823C85.1502 23.9278 85.1502 26.8247 85.1882 30.1731Z" fill="black"/>
<path d="M109.05 3.46125V5.83145H108.404V4.02558H103.541L103.579 36.8698H104.567V37.4342H98.3351V36.8698H99.551V4.02558H94.9534V5.83145H94.3075V3.46125H109.05Z" fill="black"/>
<path d="M140.701 3.46125V5.60572H140.055V4.06321H133.824L133.862 19.9398C133.862 19.6012 133.976 19.3755 134.242 19.1874C134.508 18.9992 134.964 18.924 135.648 18.924H138.003V17.9082H138.649V20.4665H138.003V19.5636H135.458C134.85 19.5636 134.47 19.7141 134.204 20.0527C133.976 20.3913 133.824 20.8804 133.824 21.5199V36.9451H140.017V35.4026H140.663V37.547H128.58V36.9827H129.796V4.02558H128.58V3.46125H140.701Z" fill="black"/>
<path d="M147.655 26.1099V36.9074H148.642V37.4718H142.411V36.9074H143.627V4.02558H142.411V3.46125H148.642V4.02558H147.617L147.655 24.5673L156.052 4.02558H155.026V3.46125H157.61V4.02558H156.66L151.986 15.8014L158.256 36.9074H159.281V37.4718H152.784V36.9074H154L149.326 21.8962L147.655 26.1099Z" fill="black"/>
<path d="M168.857 29.1196H164.943C164.639 29.1196 164.335 29.1573 163.993 29.1949C163.651 29.2325 163.309 29.3454 163.005 29.4959C162.701 29.6463 162.435 29.8345 162.207 30.0978C161.979 30.3235 161.865 30.6622 161.827 31.0384L161.029 37.0203H161.865V37.5094C161.751 37.5094 161.561 37.5094 161.295 37.5094C161.029 37.5094 160.763 37.5094 160.497 37.5094C160.231 37.5094 160.003 37.5094 159.775 37.5094C159.547 37.5094 159.471 37.5094 159.471 37.4718V37.0203H160.269C160.269 36.9827 160.345 36.4936 160.459 35.553C160.573 34.6125 160.763 33.3333 160.991 31.8284C161.219 30.2859 161.447 28.5177 161.713 26.5613C161.979 24.5673 162.245 22.5734 162.511 20.5418C163.119 15.7261 163.841 10.2333 164.639 4.10083H163.385V3.46125H168.705L174.822 36.9827H175.81V37.4718H168.781V36.9827H169.996L168.857 29.1196ZM168.781 28.6305L165.247 5.83145L161.941 30.1354C161.941 29.6463 162.283 29.2701 162.929 29.0068C163.613 28.7434 164.335 28.6305 165.095 28.6305H168.781Z" fill="black"/>
<path d="M64.8981 15.4251C66.494 16.4409 68.0898 18.2844 68.2038 21.5952V21.6328C68.3938 23.1001 68.6598 24.5673 68.9637 25.9594L70.5976 21.8962L73.9413 32.6561C74.6632 34.5372 75.6891 36.155 76.791 37.5094H80.5147V36.9451H79.4888L73.2573 15.8014L77.9689 4.02558H78.9188V3.46125H76.3351V4.02558H77.361L68.9637 24.5673L68.9257 4.02558H69.9517V3.46125H63.7202V4.02558H64.9361V15.4251H64.8981Z" fill="black"/>
<path d="M56.6529 2.21972C57.4128 5.37999 58.4767 9.93228 59.0466 12.5658C59.4266 14.4093 59.7306 16.2152 59.7306 16.2152C66.076 16.4786 65.962 20.9932 66 21.8209C66.9119 29.1949 69.6097 35.9293 71.7375 39.1272C70.3316 38.7509 67.7858 34.9887 67.7858 34.9887C69.9516 40.2182 74.0553 42.5508 74.0553 42.5508C78.1209 47.8932 82.1485 50 82.1485 50C82.1485 50 78.1209 49.1347 74.2073 45.523C74.9672 47.1407 77.133 48.4199 76.905 48.3446C71.2435 45.8615 62.0484 39.7667 54.677 25.3574C54.1071 23.7773 52.3212 20.4289 56.5769 16.5538L55.323 13.6945C53.4991 9.21746 51.9033 4.62754 50.3834 0.0376239C50.3834 1.58697e-06 53.4611 1.80587 56.6529 2.21972ZM58.4387 19.7141C56.5009 21.5576 56.0069 23.6644 57.1088 25.8841C62.4663 36.3055 72.0415 43.7547 72.0415 43.7547C72.0415 43.7547 58.7807 31.0384 58.4387 19.7141ZM56.1969 13.2054C55.361 9.21746 54.0691 3.16027 54.0691 3.16027C54.0691 3.16027 52.6632 2.67118 51.8653 2.06923C53.2332 6.13243 56.1969 13.2054 56.1969 13.2054Z" fill="#CE0020"/>
<path d="M79.8307 44.3943C79.3747 44.0557 79.0708 43.7547 78.6908 43.4537C78.3488 43.1151 78.0069 42.7765 77.7029 42.4379C77.0569 41.7231 76.487 41.0083 75.993 40.2182C75.4991 39.4281 75.0431 38.6381 74.7012 37.7728C74.3212 36.9451 74.0552 36.0421 73.8652 35.1768C74.2452 36.0045 74.6252 36.7946 75.1191 37.547C75.6131 38.2995 76.145 38.9767 76.753 39.6163C77.3609 40.2558 78.0069 40.8578 78.6908 41.3845C79.0328 41.6479 79.3747 41.9112 79.7547 42.1369C80.0967 42.3627 80.5146 42.5884 80.8186 42.7389C81.2746 42.9646 81.5025 43.529 81.2746 44.0181C81.0466 44.4695 80.4766 44.6953 79.9827 44.4695C79.9067 44.4695 79.8687 44.4319 79.8307 44.3943Z" fill="#CE0020"/>
<path d="M61.4023 42.7765C60.7184 41.9865 60.1865 41.1964 59.6165 40.3687C59.0846 39.541 58.5906 38.7133 58.1346 37.848C57.6787 36.9827 57.2607 36.1174 56.8808 35.2144C56.5008 34.3115 56.1588 33.4086 55.8549 32.5056C56.3108 33.371 56.7668 34.1986 57.2987 34.9887C57.7927 35.7788 58.3626 36.5688 58.9326 37.3213C59.5025 38.0737 60.1105 38.7886 60.7564 39.5034C61.4023 40.1806 62.0863 40.8954 62.7322 41.4597C63.1122 41.7983 63.1882 42.4003 62.8082 42.7765C62.4662 43.1527 61.8583 43.228 61.4783 42.8518C61.4783 42.8518 61.4403 42.8141 61.4023 42.7765Z" fill="#CE0020"/>
<path d="M5.24352 36.9074H6.23143V37.4718H0V36.9074H1.21589V4.02558H0V3.46125H5.20553V4.02558L5.24352 26.4861C5.24352 26.2227 5.35751 25.997 5.62349 25.8089C5.88946 25.6208 6.34542 25.5079 7.02936 25.5079C7.63731 25.5079 8.13126 25.395 8.51123 25.2069C8.8532 25.0188 9.15717 24.5297 9.30915 23.7773C9.49914 23.0248 9.61313 21.8585 9.65112 20.3536C9.68912 18.8488 9.72712 16.7419 9.72712 14.0707C9.72712 11.4372 9.61313 9.44319 9.38515 8.08879C9.15717 6.73439 8.8532 5.75621 8.43523 5.11663C8.01727 4.51467 7.52332 4.17607 6.95337 4.10083C6.38342 4.02558 5.77548 3.98796 5.16753 3.98796V3.46125C6.72539 3.46125 8.05527 3.53649 9.15717 3.64936C10.2591 3.72461 11.133 4.13845 11.7789 4.77803C12.4249 5.45523 12.8808 6.50865 13.1468 7.9383C13.4128 9.36795 13.5268 11.4372 13.5268 14.0707C13.5268 17.0053 13.4508 19.3002 13.3368 20.918C13.2228 22.5357 12.9568 23.7396 12.5389 24.5297C12.1209 25.3198 11.437 25.7713 10.563 25.9217C9.65112 26.0722 8.43523 26.1475 6.83938 26.1475C6.23143 26.1475 5.85147 26.298 5.58549 26.6366C5.35751 26.9752 5.20553 27.4643 5.20553 28.1038V36.9074H5.24352Z" fill="black"/>
<path d="M14.8567 4.02558V3.46125H21.0881V4.02558H20.0622L20.1382 36.9074H21.1261V37.4718H14.8567V36.9074H16.0726V4.02558H14.8567Z" fill="black"/>
<path d="M35.1468 37.4718C33.3609 33.1452 31.7651 29.2325 30.3212 25.696C29.7133 24.1911 29.1053 22.7239 28.4974 21.219C27.9274 19.7141 27.3575 18.3597 26.8635 17.1181C26.3696 15.8766 25.9516 14.8232 25.6476 13.9202C25.3057 13.0173 25.1157 12.453 25.0397 12.152V36.8322H26.0276V37.3965H22.8739V36.8322H24.0898V4.02558H22.8739V3.46125H26.0276L36.3247 29.2701V4.06321H35.1088V3.46125H38.2625V4.02558H37.2366V20.5418C37.2366 22.611 37.2366 24.6426 37.2366 26.6366C37.2366 28.6305 37.2366 30.4364 37.2746 32.0166C37.2746 33.5967 37.3126 34.8758 37.3126 35.8916C37.3126 36.8698 37.3126 37.3965 37.3126 37.4718H35.1468Z" fill="black"/>
<path d="M47.9517 29.1196H44.038C43.7341 29.1196 43.4301 29.1573 43.0881 29.1949C42.7461 29.2325 42.4042 29.3454 42.1002 29.4959C41.7962 29.6463 41.5303 29.8345 41.3023 30.0978C41.0743 30.3235 40.9603 30.6622 40.9223 31.0384L40.1244 37.0203H40.9603V37.5094C40.8463 37.5094 40.6563 37.5094 40.3904 37.5094C40.1244 37.5094 39.8584 37.5094 39.5924 37.5094C39.3265 37.5094 39.0985 37.5094 38.8705 37.5094C38.6425 37.5094 38.5665 37.5094 38.5665 37.4718V37.0203H39.3645C39.3645 36.9827 39.4404 36.4936 39.5544 35.553C39.6684 34.6125 39.8584 33.3333 40.0864 31.8284C40.3144 30.2859 40.5423 28.5177 40.8083 26.5613C41.0743 24.5673 41.3403 22.5734 41.6063 20.5418C42.2142 15.7261 42.9361 10.2333 43.7341 4.10083H42.5182V3.46125H47.8377L53.9551 36.9827H54.943V37.4718H47.8757V36.9827H49.0916L47.9517 29.1196ZM47.8757 28.6305L44.342 5.83145L41.0363 30.1354C41.0363 29.6463 41.3783 29.2701 42.0242 29.0068C42.7082 28.7434 43.4301 28.6305 44.19 28.6305H47.8757Z" fill="black"/>
<path d="M121.779 21.3318H118.207C118.017 21.3318 117.751 21.3318 117.409 21.3694C117.067 21.4071 116.725 21.4823 116.421 21.5952C116.079 21.7081 115.813 21.8585 115.585 22.0466C115.358 22.2348 115.244 22.4981 115.244 22.8367V36.8698H116.231V37.4342H110V36.8698H111.216V4.02558H110V3.46125H116.231V4.02558H115.206L115.244 21.5199C115.244 21.4071 115.358 21.2942 115.547 21.1813C115.737 21.0685 116.003 20.9932 116.345 20.918C116.687 20.8427 117.029 20.7675 117.371 20.7299C117.713 20.6922 118.093 20.6546 118.435 20.6546H121.817V4.02558H120.601V3.46125H126.832V4.02558H125.769L125.807 36.8698H126.794V37.4342H120.563V36.8698H121.779V21.3318Z" fill="black"/>
</svg>
