<svg width="16" height="16" viewBox="0 0 16 16" xmlns="http://www.w3.org/2000/svg">
<path fill="#000"  clip-rule="evenodd" d="M11.2438 10.1743L15.2788 14.2093C15.4206 14.3512 15.5003 14.5436 15.5002 14.7443C15.5001 14.9449 15.4204 15.1373 15.2784 15.2791C15.1365 15.421 14.9441 15.5006 14.7434 15.5005C14.5428 15.5004 14.3504 15.4207 14.2086 15.2788L10.1736 11.2438C8.96735 12.178 7.45053 12.6177 5.93166 12.4733C4.4128 12.3289 3.00599 11.6113 1.99743 10.4665C0.988869 9.32165 0.454313 7.83561 0.502509 6.31066C0.550705 4.78571 1.17803 3.33639 2.25687 2.25755C3.33571 1.17871 4.78503 0.551384 6.30998 0.503188C7.83493 0.454992 9.32096 0.989548 10.4658 1.99811C11.6106 3.00667 12.3282 4.41348 12.4726 5.93234C12.617 7.45121 12.1773 8.96803 11.2431 10.1743H11.2438ZM6.50007 11C7.69354 11 8.83814 10.5259 9.68205 9.68198C10.526 8.83807 11.0001 7.69347 11.0001 6.5C11.0001 5.30653 10.526 4.16193 9.68205 3.31802C8.83814 2.47411 7.69354 2 6.50007 2C5.3066 2 4.162 2.47411 3.31809 3.31802C2.47418 4.16193 2.00007 5.30653 2.00007 6.5C2.00007 7.69347 2.47418 8.83807 3.31809 9.68198C4.162 10.5259 5.3066 11 6.50007 11Z" fill="black"/>
</svg>
